# xmcd
# 
# Track frame offsets:
#     150
#     22697
#     41443
#     62765
#     82881
#     98851
#     116391
#     136513
#     150936
# 
# Disc length: 2263
# 
# Revision: 0
# Processed by: cddbd v1.5.2PL0 Copyright (c) Steve Scherf et al.
# Submitted via: fre:ac v1.0.27
# 
DISCID=5408d509
DTITLE=Ben Sidran - PLAYLIST Drummer Boys
DYEAR=1979
DGENRE=Jazz
TTITLE0=Hi-fly
TTITLE1=Ask me now
TTITLE2=Like Sonny
TTITLE3=Give it to the kids
TTITLE4=Minority
TTITLE5=Blue Daniel
TTITLE6=Ballin' the jack
TTITLE7=Girl talk
TTITLE8=Seven steps to heaven
EXTD=YEAR: 1979
EXTT0=
EXTT1=
EXTT2=
EXTT3=
EXTT4=
EXTT5=
EXTT6=
EXTT7=
EXTT8=
PLAYORDER=
